<svg width="9" height="10" viewBox="0 0 9 10" fill="none" xmlns="http://www.w3.org/2000/svg">
<path d="M8.76448 7.45026L7.50587 6.21444C7.05636 5.77307 6.2922 5.94964 6.11239 6.52339C5.97754 6.92064 5.52803 7.14132 5.12348 7.05303C4.22446 6.83235 3.01079 5.6848 2.78604 4.75794C2.65119 4.36069 2.92089 3.91933 3.32545 3.78694C3.90981 3.61039 4.08961 2.86007 3.6401 2.41871L2.38148 1.18289C2.02188 0.873933 1.48247 0.873933 1.16782 1.18289L0.313753 2.02148C-0.54031 2.90421 0.403654 5.24344 2.51634 7.31785C4.62902 9.39226 7.01141 10.3633 7.91042 9.48053L8.76448 8.64194C9.07916 8.28885 9.07916 7.75921 8.76448 7.45026Z" fill="#1E9CE2"/>
</svg>
