<svg width="25" height="25" viewBox="0 0 25 25" fill="none" xmlns="http://www.w3.org/2000/svg">
<path d="M12.5001 0C5.59755 0 0 5.5975 0 12.5C0 19.4025 5.59755 25 12.5001 25C19.4027 25 25.0002 19.4025 25.0002 12.5C25.0002 5.5975 19.4027 0 12.5001 0ZM12.7651 19.7779C12.7649 19.7779 12.7652 19.7779 12.7651 19.7779H12.762C11.5098 19.7773 10.2794 19.4633 9.18664 18.8675L5.22065 19.9076L6.2821 16.0318C5.62731 14.8977 5.28284 13.611 5.28341 12.2929C5.28512 8.16917 8.64133 4.81434 12.7651 4.81434C14.7663 4.8151 16.6448 5.59406 18.0572 7.0076C19.4698 8.42133 20.2473 10.3004 20.2465 12.2988C20.2448 16.4227 16.8882 19.7779 12.7651 19.7779Z" fill="url(#paint0_linear_3_108)"/>
<path d="M12.7675 6.07764C9.33744 6.07764 6.54791 8.86599 6.54639 12.2935C6.54601 13.468 6.87484 14.6119 7.49721 15.6016L7.64503 15.8368L7.01674 18.1308L9.37024 17.5135L9.59741 17.6482C10.552 18.2147 11.6465 18.5143 12.7623 18.5147H12.7648C16.1921 18.5147 18.9817 15.7262 18.9832 12.2985C18.9838 10.6373 18.3375 9.07561 17.1636 7.90068C15.9896 6.72575 14.4282 6.07821 12.7675 6.07764ZM16.425 14.9661C16.2692 15.4025 15.5225 15.8009 15.1633 15.8547C14.8411 15.9028 14.4337 15.9228 13.9859 15.7807C13.7143 15.6945 13.3662 15.5795 12.92 15.387C11.0449 14.5776 9.82019 12.69 9.72673 12.5653C9.63327 12.4406 8.9634 11.5519 8.9634 10.632C8.9634 9.71228 9.44635 9.26005 9.61763 9.07313C9.7891 8.88602 9.99167 8.83929 10.1162 8.83929C10.2408 8.83929 10.3655 8.84043 10.4744 8.84577C10.5892 8.8515 10.7434 8.8021 10.895 9.16659C11.0508 9.54081 11.4247 10.4605 11.4714 10.554C11.5181 10.6476 11.5492 10.7567 11.487 10.8815C11.4247 11.0062 11.2175 11.2754 11.0197 11.5206C10.9368 11.6234 10.8286 11.715 10.9377 11.9021C11.0466 12.089 11.422 12.7011 11.9776 13.1966C12.6917 13.8333 13.2941 14.0305 13.481 14.1242C13.6677 14.2176 13.7768 14.202 13.8859 14.0774C13.9948 13.9527 14.3532 13.5318 14.4778 13.3446C14.6023 13.1575 14.7271 13.1888 14.8984 13.2512C15.0698 13.3134 15.9888 13.7656 16.1757 13.8591C16.3627 13.9527 16.4872 13.9994 16.5339 14.0774C16.5809 14.1555 16.5809 14.5295 16.425 14.9661Z" fill="#29B53F"/>
<defs>
<linearGradient id="paint0_linear_3_108" x1="12.5001" y1="0" x2="12.5001" y2="25" gradientUnits="userSpaceOnUse">
<stop stop-color="#59D265"/>
<stop offset="1" stop-color="#29B53F"/>
</linearGradient>
</defs>
</svg>
