<svg width="12" height="16" viewBox="0 0 12 16" fill="none" xmlns="http://www.w3.org/2000/svg">
<path d="M5.95499 0C2.67139 0 0 2.59944 0 5.79457C0 9.75982 5.32913 15.581 5.55602 15.8269C5.76914 16.0579 6.14122 16.0575 6.35395 15.8269C6.58084 15.581 11.91 9.75982 11.91 5.79457C11.9099 2.59944 9.23855 0 5.95499 0ZM5.95499 8.70998C4.30293 8.70998 2.95891 7.40213 2.95891 5.79457C2.95891 4.187 4.30296 2.87919 5.95499 2.87919C7.60701 2.87919 8.95103 4.18704 8.95103 5.7946C8.95103 7.40217 7.60701 8.70998 5.95499 8.70998Z" fill="url(#paint0_linear_3_90)"/>
<defs>
<linearGradient id="paint0_linear_3_90" x1="5.95499" y1="0" x2="5.95499" y2="16" gradientUnits="userSpaceOnUse">
<stop stop-color="#08B84E"/>
<stop offset="1" stop-color="#08B84E"/>
</linearGradient>
</defs>
</svg>
